<?xml version="1.0" encoding="UTF-8" standalone="no"?>
<!-- Svg Vector Icons : http://www.onlinewebfonts.com/icon -->

<svg
   version="1.1"
   x="0px"
   y="0px"
   viewBox="0 0 1000 1000"
   enable-background="new 0 0 1000 1000"
   xml:space="preserve"
   id="svg10"
   sodipodi:docname="camera_lens.svg"
   inkscape:version="1.1 (c68e22c387, 2021-05-23)"
   xmlns:inkscape="http://www.inkscape.org/namespaces/inkscape"
   xmlns:sodipodi="http://sodipodi.sourceforge.net/DTD/sodipodi-0.dtd"
   xmlns="http://www.w3.org/2000/svg"
   xmlns:svg="http://www.w3.org/2000/svg"><defs
   id="defs14" /><sodipodi:namedview
   id="namedview12"
   pagecolor="#505050"
   bordercolor="#eeeeee"
   borderopacity="1"
   inkscape:pageshadow="0"
   inkscape:pageopacity="0"
   inkscape:pagecheckerboard="0"
   showgrid="false"
   inkscape:zoom="0.812"
   inkscape:cx="500.61576"
   inkscape:cy="498.15271"
   inkscape:window-width="2400"
   inkscape:window-height="1271"
   inkscape:window-x="-9"
   inkscape:window-y="-9"
   inkscape:window-maximized="1"
   inkscape:current-layer="svg10" />
<metadata
   id="metadata2"> Svg Vector Icons : http://www.onlinewebfonts.com/icon </metadata>
<g
   id="g8"><path
     d="M500,10C229.4,10,10,229.4,10,500c0,270.6,219.4,490,490,490c270.6,0,490-219.4,490-490C990,229.4,770.6,10,500,10z M500,871.1c-205,0-371.1-166.1-371.1-371.1c0-204.9,166.1-371.1,371.1-371.1S871.1,295.1,871.1,500C871.1,704.9,705,871.1,500,871.1z"
     id="path4" /><path
     d="M500,183.7c-174.7,0-316.3,141.6-316.3,316.3c0,174.7,141.6,316.3,316.3,316.3c174.7,0,316.3-141.6,316.3-316.3C816.3,325.3,674.7,183.7,500,183.7z M500,394.6c-91.8,0-166.1-37.2-166.1-83.1c0-45.9,74.4-83.1,166.1-83.1c91.8,0,166.1,37.2,166.1,83.1C666.1,357.4,591.8,394.6,500,394.6z"
     id="path6" /></g>
<path
   style="fill:#fc9c9c;stroke:#a82626;stroke-width:0;stroke-linecap:square;stroke-linejoin:round;fill-opacity:1"
   d="M 463.66995,813.90761 C 392.38732,805.34768 328.06638,774.00888 277.02875,722.97126 247.29361,693.23611 226.32634,662.58185 210.01723,625 199.89884,601.68374 193.30722,579.30587 188.25173,551.10837 185.68722,536.80452 185.38135,531.35845 185.38135,500 c 0,-37.81202 1.37672,-50.20076 8.75878,-78.81773 28.84501,-111.81931 117.77869,-200.04454 229.50519,-227.67692 23.57877,-5.83154 39.22394,-7.79532 67.33809,-8.45224 38.56261,-0.90107 62.76024,1.98674 96.32512,11.49571 51.24119,14.51667 96.61947,41.43669 135.66273,80.47993 51.86253,51.86254 82.99779,116.52838 91.04977,189.10425 1.58414,14.27854 1.58414,53.45546 0,67.734 -8.03504,72.4233 -39.29626,137.35073 -91.04977,189.10426 -25.50505,25.50503 -50.1089,43.39906 -80.97242,58.89005 -30.79971,15.45897 -55.34765,23.52243 -90.89047,29.85554 -11.9762,2.13395 -20.73282,2.70346 -46.18226,3.00354 -17.27217,0.20369 -35.83744,-0.16208 -41.25616,-0.81278 z M 541.87192,392.335 c 60.39304,-8.25565 106.23839,-31.93914 120.56971,-62.28574 2.74575,-5.81414 3.19876,-8.43398 3.19876,-18.4988 0,-10.73605 -0.33482,-12.39865 -3.96822,-19.70443 -5.20048,-10.45675 -12.28994,-18.50321 -23.86272,-27.08391 -32.97402,-24.44874 -91.28534,-38.73947 -149.00737,-36.51821 -73.38279,2.82393 -132.83724,27.95115 -150.49132,63.60212 -3.61367,7.29751 -3.95115,8.98275 -3.95115,19.73032 0,10.79287 0.32968,12.42099 4.04226,19.96232 12.40856,25.20536 49.35398,46.82336 97.17053,56.85773 12.63632,2.65175 21.54955,3.90321 44.1074,6.19285 9.38641,0.95272 49.32084,-0.49477 62.19212,-2.25425 z"
   id="path3637" /><path
   style="fill:#fc9c9c;fill-opacity:1;stroke:#a82626;stroke-width:0;stroke-linecap:square;stroke-linejoin:round"
   d="M 461.82266,988.09962 C 442.6459,986.2201 430.46915,984.63491 415.64039,982.08754 283.52765,959.39241 166.169,882.42744 91.791869,769.70443 76.671812,746.78908 69.047729,733.4702 58.528403,711.59484 33.465399,659.47532 17.726502,601.87727 12.319209,542.48768 c -1.589703,-17.46008 -1.589703,-67.51528 0,-84.97536 C 24.699294,321.53892 90.85842,199.30131 197.6601,115.07084 c 14.61111,-11.52323 45.66398,-32.422149 61.57635,-41.441559 54.28295,-30.76851 112.95607,-50.129889 180.41872,-59.53586 19.08676,-2.66117 79.22974,-3.784477 101.1167,-1.888585 136.61547,11.833904 258.69883,77.638158 344.24142,185.549844 11.36426,14.33599 32.14382,45.22677 41.35742,61.48177 31.6917,55.91165 51.63505,117.61477 60.30422,186.57636 2.20723,17.55808 2.20723,90.8163 0,108.37438 -13.58497,108.06588 -54.33364,197.306 -126.60024,277.25621 -24.75957,27.39209 -57.23049,54.98591 -90.37026,76.79672 -23.47519,15.45011 -36.65997,22.95073 -59.38227,33.78165 -52.21264,24.88793 -108.72451,40.29925 -167.21871,45.60215 -12.84057,1.16407 -70.79648,1.50327 -81.28079,0.4757 z M 544.65861,868.76405 C 755.14134,842.86201 901.50834,647.02709 866.28739,438.43378 848.47155,332.92092 787.29567,241.65368 696.08516,184.51208 588.33399,117.00808 451.32857,110.14675 336.47899,166.50277 c -147.45245,72.35404 -230.15228,233.4623 -202.7805,395.03847 28.63402,169.02732 167.78192,295.82837 339.20791,309.10939 18.0837,1.40101 52.36048,0.49978 71.75221,-1.88658 z"
   id="path3787" /></svg>
