<?xml version="1.0" encoding="UTF-8" standalone="no"?>
<svg
   id="Capa_1"
   enable-background="new 0 0 512 512"
   height="512"
   viewBox="0 0 512 512"
   width="512"
   version="1.1"
   sodipodi:docname="player_spawner.svg"
   inkscape:version="1.1 (c68e22c387, 2021-05-23)"
   xmlns:inkscape="http://www.inkscape.org/namespaces/inkscape"
   xmlns:sodipodi="http://sodipodi.sourceforge.net/DTD/sodipodi-0.dtd"
   xmlns="http://www.w3.org/2000/svg"
   xmlns:svg="http://www.w3.org/2000/svg">
  <defs
     id="defs23" />
  <sodipodi:namedview
     id="namedview21"
     pagecolor="#505050"
     bordercolor="#eeeeee"
     borderopacity="1"
     inkscape:pageshadow="0"
     inkscape:pageopacity="0"
     inkscape:pagecheckerboard="0"
     showgrid="false"
     inkscape:zoom="1.5859375"
     inkscape:cx="255.68473"
     inkscape:cy="305.49754"
     inkscape:window-width="1920"
     inkscape:window-height="1001"
     inkscape:window-x="2391"
     inkscape:window-y="-9"
     inkscape:window-maximized="1"
     inkscape:current-layer="g18" />
  <g
     id="g18">
    <path
       d="m256 110c24.853 0 45-20.147 45-45v-20c0-24.853-20.147-45-45-45-24.853 0-45 20.147-45 45v20c0 24.853 20.147 45 45 45z"
       id="path2" />
    <path
       d="m91 170h80v55c0 8.284 6.716 15 15 15h140c8.284 0 15-6.716 15-15v-55h80c16.569 0 30-13.431 30-30 0-16.568-13.431-30-30-30h-105.041c-13.697 18.204-35.475 30-59.959 30s-46.262-11.796-59.959-30h-105.041c-16.569 0-30 13.431-30 30 0 16.569 13.431 30 30 30z"
       id="path4" />
    <path
       d="m496.576 482h-45.576c0-24.853-20.147-45-45-45h-300c-24.853 0-45 20.147-45 45h-45.576c-8.077 0-15.027 6.207-15.407 14.275-.406 8.614 6.458 15.725 14.983 15.725h482c8.525 0 15.389-7.111 14.983-15.725-.38-8.068-7.33-14.275-15.407-14.275z"
       id="path6" />
    <path
       d="m371.204 254.534-25.411 152.466h30.414l24.589-147.534c1.362-8.172-4.158-15.899-12.33-17.262-8.175-1.358-15.901 4.158-17.262 12.33z"
       id="path8" />
    <path
       d="m123.534 242.204c-8.172 1.362-13.692 9.09-12.33 17.262l24.589 147.534h30.414l-25.411-152.466c-1.362-8.171-9.086-13.689-17.262-12.33z"
       id="path10" />
    <path
       d="m181 317v40c0 8.284 6.716 15 15 15s15-6.716 15-15v-40c0-8.284-6.716-15-15-15s-15 6.716-15 15z"
       id="path12" />
    <path
       d="m241 317v60c0 8.284 6.716 15 15 15s15-6.716 15-15v-60c0-8.284-6.716-15-15-15s-15 6.716-15 15z"
       id="path14" />
    <path
       d="m301 317v40c0 8.284 6.716 15 15 15s15-6.716 15-15v-40c0-8.284-6.716-15-15-15s-15 6.716-15 15z"
       id="path16" />
  </g>
  <path
     style="fill:#fc9c9c;stroke:#a82626;stroke-width:0;stroke-linecap:square;stroke-linejoin:round"
     d="m 180.33498,238.60213 c -1.2138,-0.52494 -3.15328,-1.86162 -4.30996,-2.9704 -4.35881,-4.1783 -4.16953,-2.68046 -4.51763,-35.74996 l -0.31527,-29.95074 -43.50739,-0.31527 C 84.27899,169.30123 84.169082,169.29715 80.642975,167.87061 70.23192,163.65866 63.493989,155.37544 61.674384,144.55172 c -2.474314,-14.71817 7.205659,-29.41438 21.894459,-33.24033 3.194291,-0.83201 11.234216,-0.96656 57.753547,-0.96656 h 54.04264 l 7.47917,7.40886 c 10.77632,10.67504 20.49896,16.33167 34.67261,20.17255 5.70676,1.54645 7.14317,1.67676 18.48319,1.67676 11.34002,0 12.77643,-0.13031 18.48319,-1.67676 14.17365,-3.84088 23.89629,-9.49751 34.67261,-20.17255 l 7.47917,-7.40886 h 54.04264 c 46.51933,0 54.55925,0.13455 57.75355,0.96656 14.72746,3.83602 24.37528,18.48341 21.89445,33.24033 -1.8196,10.82372 -8.55753,19.10694 -18.96859,23.31889 -3.5261,1.42654 -3.63601,1.43062 -47.04175,1.74515 l -43.50739,0.31527 -0.31527,29.95074 c -0.3481,33.06933 -0.15864,31.57006 -4.51763,35.7513 -4.4127,4.23276 0.80952,3.9754 -80.11236,3.94816 -64.03862,-0.0216 -73.60013,-0.14551 -75.52764,-0.9791 z"
     id="path877" />
  <path
     style="fill:#fc9c9c;stroke:#a82626;stroke-width:0;stroke-linecap:square;stroke-linejoin:round"
     d="m 246.85714,108.82101 c -16.14885,-3.73703 -28.41407,-14.822602 -33.54483,-30.318547 -1.58944,-4.80046 -1.68314,-5.812751 -1.93808,-20.938469 -0.32148,-19.07461 0.2791,-23.295277 4.55733,-32.027048 C 223.70564,9.6702178 238.44777,0.43439064 256,0.43439064 c 17.61078,0 32.21641,9.15253636 40.0587,25.10255536 4.28873,8.722631 4.88891,12.931469 4.56706,32.027048 -0.25493,15.125718 -0.34862,16.138009 -1.93808,20.938469 -2.36119,7.131303 -5.69492,12.495587 -11.16518,17.965847 -8.58428,8.58428 -17.76429,12.5657 -29.94615,12.98784 -4.50624,0.15615 -8.26125,-0.0663 -10.71921,-0.63514 z"
     id="path916" />
  <path
     style="fill:#fc9c9c;stroke:#a82626;stroke-width:0;stroke-linecap:square;stroke-linejoin:round"
     d="m 135.89938,405.91133 c -0.14195,-0.4335 -5.79402,-34.12808 -12.56015,-74.87685 -13.09829,-78.88402 -12.77538,-76.31068 -10.1952,-81.2485 1.11574,-2.13524 3.88939,-4.70792 6.49042,-6.02014 7.10543,-3.58468 16.17451,-0.42422 19.39993,6.76064 1.13475,2.52774 4.33136,20.48674 14.13229,79.39708 6.96621,41.87176 12.66584,76.2757 12.66584,76.4532 0,0.17751 -6.67688,0.32275 -14.83752,0.32275 -11.31201,0 -14.89885,-0.18728 -15.09561,-0.78818 z"
     id="path955" />
  <path
     style="fill:#fc9c9c;stroke:#a82626;stroke-width:0;stroke-linecap:square;stroke-linejoin:round"
     d="m 192.13461,371.11336 c -3.92792,-1.0438 -7.30626,-3.83193 -9.27464,-7.65432 l -1.57918,-3.0666 -0.19594,-21.33052 c -0.12872,-14.01378 0.0456,-22.49371 0.50804,-24.72155 2.87821,-13.86425 21.25205,-16.48579 27.40478,-3.91005 l 1.64727,3.3669 -0.17961,23.95986 -0.17962,23.95985 -1.89162,3.03524 c -3.32922,5.34194 -10.11087,7.99513 -16.25948,6.36119 z"
     id="path994" />
  <path
     style="fill:#fc9c9c;stroke:#a82626;stroke-width:0;stroke-linecap:square;stroke-linejoin:round"
     d="m 250.00985,390.38182 c -3.2105,-1.47276 -5.85487,-4.11713 -7.32763,-7.32763 -1.07593,-2.34548 -1.15796,-4.88951 -1.17084,-36.31462 l -0.0138,-33.79245 1.46675,-2.77898 c 1.92502,-3.64726 5.86386,-6.59316 10.07568,-7.53572 6.31753,-1.41381 13.32554,1.9687 16.14479,7.7925 1.28675,2.65806 1.31738,3.51353 1.30386,36.41455 -0.0153,37.27343 0.0815,36.32755 -4.15207,40.56112 -4.05792,4.05793 -11.15468,5.35378 -16.3267,2.98123 z"
     id="path1033" />
  <path
     style="fill:#fc9c9c;stroke:#a82626;stroke-width:0;stroke-linecap:square;stroke-linejoin:round"
     d="m 312.91141,371.3521 c -4.07657,-0.80168 -7.96471,-3.81048 -9.87318,-7.64029 l -1.63922,-3.28947 v -23.39771 -23.39771 l 1.66154,-3.33426 c 5.39908,-10.83456 20.77219,-10.57955 26.19711,0.43456 1.44857,2.94101 1.46155,3.17451 1.46155,26.29741 0,23.1516 -0.0112,23.35285 -1.46784,26.31041 -3.03809,6.16863 -9.53355,9.35557 -16.33996,8.01706 z"
     id="path1072" />
  <path
     style="fill:#fc9c9c;stroke:#a82626;stroke-width:0;stroke-linecap:square;stroke-linejoin:round"
     d="m 346.16749,406.38818 c 0,-0.18379 5.69963,-34.59286 12.66584,-76.46462 9.80093,-58.91034 12.99754,-76.86934 14.13229,-79.39708 3.22542,-7.18486 12.2945,-10.34532 19.39993,-6.76064 2.60181,1.31262 5.37477,3.88507 6.49138,6.022 2.5806,4.93867 2.91048,2.32633 -10.33996,81.88148 l -12.44428,74.71492 -14.9526,0.16904 c -8.22393,0.093 -14.9526,0.0187 -14.9526,-0.1651 z"
     id="path1111" />
  <path
     style="fill:#fc9c9c;stroke:#a82626;stroke-width:0;stroke-linecap:square;stroke-linejoin:round"
     d="M 11.169091,511.10326 C 2.5510569,508.7857 -2.2087468,498.54705 1.7461188,490.83384 c 1.729832,-3.37371 5.7641355,-6.95838 8.7708282,-7.79329 1.503425,-0.41748 11.445908,-0.67031 26.445916,-0.6725 l 24.036753,-0.004 0.443201,-4.49778 c 1.064028,-10.7982 5.16728,-19.27141 13.256369,-27.37438 4.617571,-4.6255 6.708808,-6.20217 11.054509,-8.33445 10.893726,-5.34517 -5.444124,-4.87713 170.246305,-4.87713 175.69043,0 159.35258,-0.46804 170.24631,4.87713 4.3457,2.13228 6.43693,3.70895 11.0545,8.33445 8.08909,8.10297 12.19234,16.57618 13.25637,27.37438 l 0.4432,4.49778 24.03676,0.004 c 15,0.002 24.94249,0.25503 26.44591,0.67251 3.0067,0.83491 7.041,4.41957 8.77083,7.79328 4.09929,7.99489 -1.16923,18.53264 -10.2381,20.47756 -5.06089,1.08536 -484.796245,0.88111 -488.846689,-0.20814 z"
     id="path1150" />
</svg>
